<svg width="547" height="110" version="1.1" xmlns="http://www.w3.org/2000/svg" desc="Created with imagetracer.js version 1.2.6" ><path fill="rgb(0,0,0)" stroke="rgb(0,0,0)" stroke-width="1" opacity="0" d="M 0 0 L 40 0.5 Q 33.4 2.4 30 7.5 L 0.5 69 L 0 0 Z " /><path fill="rgb(0,0,0)" stroke="rgb(0,0,0)" stroke-width="1" opacity="0" d="M 51.5 0 L 546.5 0 L 547 0.5 L 547 110 L 73.5 110 L 73 109.5 L 73 96.5 L 72.5 96 L 31.5 96 L 29 95 L 28 92.5 L 45 57.5 L 47.5 55 Q 50.1 54.2 49 57.5 L 55 72 L 67.5 72 L 68 69.5 L 52 29.5 L 47.5 23 Q 43.5 22.5 43 25.5 L 9 97.5 L 8 104.5 L 9 108 L 13 109.5 L 0 110 L 0 71 L 17.5 71 L 25 57.5 L 39 25.5 L 42.5 21 L 47.5 19 L 53 23.5 L 72 73 L 90 72.5 L 65 13.5 L 56.5 3 L 51.5 1 L 51.5 0 Z M 70 6 L 67 10 L 67 15 L 76 32 L 80 31 L 80 21 L 73 8 L 70 6 Z M 224 25 L 223 26 L 204 26 L 203 27 L 191 27 L 190 28 L 173 29 L 152 33 L 142 37 L 139 41 L 140 44 L 152 49 L 172 53 L 189 54 L 190 55 L 202 55 L 203 56 L 221 56 L 222 57 L 276 57 L 277 56 L 308 55 L 309 54 L 318 54 L 319 53 L 326 53 L 342 50 L 356 45 L 358 42 L 357 39 L 346 33 L 317 28 L 295 27 L 294 26 L 275 26 L 274 25 L 224 25 Z M 45 61 L 35 85 L 33 87 L 33 91 L 37 93 L 98 93 L 93 80 L 92 78 L 55 78 L 47 63 Q 48 60 45 61 Z M 114 69 L 112 70 L 107 75 L 106 79 L 108 89 L 113 92 Q 119 93 123 91 L 126 87 L 126 84 L 121 84 L 119 88 L 113 87 L 112 85 Q 110 75 116 73 L 121 76 L 121 77 L 126 77 L 125 73 Q 123 67 114 69 Z M 135 69 L 127 92 L 133 92 L 134 89 L 135 87 L 142 87 L 143 91 L 143 92 L 148 92 L 148 89 L 141 71 L 141 69 L 135 69 Z M 152 69 L 150 71 L 150 92 L 155 92 L 155 83 Q 161 82 163 86 L 163 92 L 169 92 Q 167 90 168 84 L 166 82 L 169 77 L 168 73 L 164 69 L 152 69 Z M 172 69 L 172 92 L 188 92 L 188 87 L 177 87 L 177 70 L 172 69 Z M 196 69 L 194 70 L 189 77 Q 188 85 191 89 L 196 92 Q 203 94 207 91 L 211 84 Q 212 76 209 73 Q 206 67 196 69 Z M 217 69 L 212 75 L 213 80 Q 216 84 224 83 L 226 86 L 225 88 L 220 88 Q 218 84 212 85 L 212 88 L 217 92 Q 228 94 231 88 L 230 82 Q 226 78 219 77 Q 215 75 220 73 L 224 74 Q 226 73 225 76 L 230 76 L 229 71 L 226 69 L 217 69 Z M 241 69 L 241 92 L 257 92 L 257 87 L 246 87 L 246 70 L 241 69 Z M 265 69 L 258 89 L 258 92 L 263 92 L 264 89 L 265 87 L 272 87 L 273 92 L 279 92 L 271 71 L 271 69 L 265 69 Z M 281 69 L 281 92 L 286 92 L 286 83 Q 291 81 293 85 L 293 92 L 299 92 Q 297 90 298 84 L 296 82 L 299 78 L 298 73 L 294 69 L 281 69 Z M 302 69 L 302 92 L 307 92 L 307 83 L 313 83 L 314 85 L 315 92 L 321 92 L 318 82 L 320 79 Q 321 73 319 71 L 315 69 L 302 69 Z M 324 69 L 324 92 L 341 92 L 341 87 L 329 87 L 329 82 L 339 82 L 339 78 L 329 78 L 329 74 L 340 74 L 340 69 L 324 69 Z M 351 69 L 348 73 L 342 90 L 342 92 L 347 92 L 348 89 Q 350 86 356 87 L 357 91 Q 358 93 363 92 L 356 71 Q 355 68 351 69 Z M 370 69 L 370 74 L 376 74 L 376 75 L 376 92 L 381 92 L 381 74 L 388 74 L 388 69 L 370 69 Z M 396 81 L 401 92 L 518 92 L 514 83 L 513 81 L 396 81 Z M 516 81 L 519 91 L 521 92 L 527 92 L 523 83 L 523 81 L 516 81 Z M 525 81 L 529 92 L 537 92 L 533 84 L 533 81 L 525 81 Z M 535 81 L 539 91 L 540 92 L 546 92 L 543 83 Q 541 79 535 81 Z M 386 87 Q 384 95 391 92 Q 394 85 386 87 Z " /><path fill="rgb(0,0,0)" stroke="rgb(0,0,0)" stroke-width="1" opacity="0" d="M 198.5 73 L 204 74 L 206 81.5 L 204 87 L 198.5 88 L 195 85.5 L 194 78.5 L 196.5 74 L 198.5 73 Z " /><path fill="rgb(0,0,0)" stroke="rgb(0,0,0)" stroke-width="1" opacity="0" d="M 155 74 L 163 74 L 163 77.5 L 161.5 79 L 155 79 L 155 74 Z " /><path fill="rgb(0,0,0)" stroke="rgb(0,0,0)" stroke-width="1" opacity="0" d="M 286 74 L 292.5 74 L 293 75.5 L 293 77.5 L 292.5 79 L 286 79 L 286 74 Z " /><path fill="rgb(0,0,0)" stroke="rgb(0,0,0)" stroke-width="1" opacity="0" d="M 307 74 L 313.5 74 L 315 75.5 L 313.5 79 L 307 79 L 307 74 Z " /><path fill="rgb(0,0,0)" stroke="rgb(0,0,0)" stroke-width="1" opacity="0" d="M 352.5 76 L 355 82.5 L 350 83 L 352.5 76 Z " /><path fill="rgb(0,0,0)" stroke="rgb(0,0,0)" stroke-width="1" opacity="0" d="M 137 77 Q 140.3 75.7 139 80.5 L 140 83 Q 134.8 85.1 136 80.5 L 137 77 Z " /><path fill="rgb(0,0,0)" stroke="rgb(0,0,0)" stroke-width="1" opacity="0" d="M 267 77 Q 270 75.8 269 79.5 L 270 83 Q 264.8 85.1 266 80.5 L 267 77 Z " /><path fill="rgb(226,124,129)" stroke="rgb(226,124,129)" stroke-width="1" opacity="1" d="M 202.5 31 L 201.5 33 L 202.5 31 Z " /><path fill="rgb(226,124,129)" stroke="rgb(226,124,129)" stroke-width="1" opacity="1" d="M 205.5 31 L 206 33.5 L 205 33.5 L 205.5 31 Z " /><path fill="rgb(226,124,129)" stroke="rgb(226,124,129)" stroke-width="1" opacity="1" d="M 277.5 31 L 278 33.5 L 276 34.5 L 277.5 31 Z " /><path fill="rgb(226,124,129)" stroke="rgb(226,124,129)" stroke-width="1" opacity="1" d="M 191.5 34 L 192.5 36 L 191.5 34 Z " /><path fill="rgb(226,124,129)" stroke="rgb(226,124,129)" stroke-width="1" opacity="1" d="M 226.5 34 L 228 34.5 L 224.5 37 L 226.5 34 Z " /><path fill="rgb(226,124,129)" stroke="rgb(226,124,129)" stroke-width="1" opacity="1" d="M 262.5 34 L 266 38.5 L 265 38.5 L 262.5 34 Z " /><path fill="rgb(226,124,129)" stroke="rgb(226,124,129)" stroke-width="1" opacity="1" d="M 169.5 35 L 172 36.5 L 170.5 36 L 169.5 35 Z " /><path fill="rgb(226,124,129)" stroke="rgb(226,124,129)" stroke-width="1" opacity="1" d="M 212.5 35 L 214 35.5 L 211 37.5 L 208.5 41 L 209.5 37 L 212.5 35 Z " /><path fill="rgb(226,124,129)" stroke="rgb(226,124,129)" stroke-width="1" opacity="1" d="M 247.5 35 L 249 37.5 L 246 39.5 L 248 36.5 L 247.5 35 Z " /><path fill="rgb(226,124,129)" stroke="rgb(226,124,129)" stroke-width="1" opacity="1" d="M 271.5 35 L 270.5 37 L 268 36.5 L 271.5 35 Z " /><path fill="rgb(226,124,129)" stroke="rgb(226,124,129)" stroke-width="1" opacity="1" d="M 284.5 35 L 282.5 38 L 281 37.5 L 284.5 35 Z " /><path fill="rgb(226,124,129)" stroke="rgb(226,124,129)" stroke-width="1" opacity="1" d="M 297.5 35 L 296.5 37 L 297.5 35 Z " /><path fill="rgb(226,124,129)" stroke="rgb(226,124,129)" stroke-width="1" opacity="1" d="M 300.5 35 Q 302.3 38.1 304 36.5 L 300 39.5 Q 299.3 37.3 301.5 38 L 300.5 35 Z " /><path fill="rgb(226,124,129)" stroke="rgb(226,124,129)" stroke-width="1" opacity="1" d="M 313.5 35 L 310.5 39 L 309.5 37 L 310.5 38 L 313.5 35 Z " /><path fill="rgb(226,124,129)" stroke="rgb(226,124,129)" stroke-width="1" opacity="1" d="M 196.5 36 L 199 36.5 L 196 37 L 195.5 39 L 195 37.5 L 196.5 36 Z " /><path fill="rgb(226,124,129)" stroke="rgb(226,124,129)" stroke-width="1" opacity="1" d="M 220.5 36 Q 223 37 222 41.5 L 218 44.5 Q 222 43.5 221 37.5 L 220.5 36 Z " /><path fill="rgb(226,124,129)" stroke="rgb(226,124,129)" stroke-width="1" opacity="1" d="M 243.5 36 L 242.5 38 L 243.5 36 Z " /><path fill="rgb(226,124,129)" stroke="rgb(226,124,129)" stroke-width="1" opacity="1" d="M 326.5 36 L 325.5 38 L 326.5 36 Z " /><path fill="rgb(226,124,129)" stroke="rgb(226,124,129)" stroke-width="1" opacity="1" d="M 160.5 37 L 157.5 41 L 160.5 37 Z " /><path fill="rgb(226,124,129)" stroke="rgb(226,124,129)" stroke-width="1" opacity="1" d="M 165.5 37 Q 168.5 38.5 165.5 40 Q 162.5 38.5 165.5 37 Z " /><path fill="rgb(226,124,129)" stroke="rgb(226,124,129)" stroke-width="1" opacity="1" d="M 187.5 37 L 184.5 41 L 187.5 37 Z " /><path fill="rgb(226,124,129)" stroke="rgb(226,124,129)" stroke-width="1" opacity="1" d="M 192.5 37 L 192 38.5 L 190.5 42 L 190 40.5 L 192.5 37 Z " /><path fill="rgb(226,124,129)" stroke="rgb(226,124,129)" stroke-width="1" opacity="1" d="M 232.5 37 L 231.5 39 L 232.5 37 Z " /><path fill="rgb(226,124,129)" stroke="rgb(226,124,129)" stroke-width="1" opacity="1" d="M 316.5 37 Q 319.5 38.5 316.5 40 L 314 39.5 L 316.5 37 Z " /><path fill="rgb(226,124,129)" stroke="rgb(226,124,129)" stroke-width="1" opacity="1" d="M 332.5 37 L 335 37.5 L 332.5 38 L 332.5 37 Z " /><path fill="rgb(226,124,129)" stroke="rgb(226,124,129)" stroke-width="1" opacity="1" d="M 203.5 38 L 206 38.5 L 203.5 39 L 203.5 38 Z " /><path fill="rgb(226,124,129)" stroke="rgb(226,124,129)" stroke-width="1" opacity="1" d="M 215.5 38 L 213.5 41 L 215.5 38 Z " /><path fill="rgb(226,124,129)" stroke="rgb(226,124,129)" stroke-width="1" opacity="1" d="M 238.5 38 L 241 38.5 L 237.5 41 L 237.5 40 L 239 39.5 L 238.5 38 Z " /><path fill="rgb(226,124,129)" stroke="rgb(226,124,129)" stroke-width="1" opacity="1" d="M 254.5 38 L 251.5 42 L 254.5 38 Z " /><path fill="rgb(226,124,129)" stroke="rgb(226,124,129)" stroke-width="1" opacity="1" d="M 259.5 38 L 257.5 41 L 259.5 38 Z " /><path fill="rgb(226,124,129)" stroke="rgb(226,124,129)" stroke-width="1" opacity="1" d="M 261.5 38 L 262 40.5 L 260 41.5 L 261.5 38 Z " /><path fill="rgb(226,124,129)" stroke="rgb(226,124,129)" stroke-width="1" opacity="1" d="M 274.5 38 L 277 38.5 L 274.5 39 L 274.5 38 Z " /><path fill="rgb(226,124,129)" stroke="rgb(226,124,129)" stroke-width="1" opacity="1" d="M 293.5 38 L 294 40.5 L 293 40.5 L 293.5 38 Z " /><path fill="rgb(226,124,129)" stroke="rgb(226,124,129)" stroke-width="1" opacity="1" d="M 197.5 39 L 196.5 41 L 197.5 39 Z " /><path fill="rgb(226,124,129)" stroke="rgb(226,124,129)" stroke-width="1" opacity="1" d="M 321.5 39 L 320.5 42 L 322 42.5 L 320.5 43 L 318 41.5 L 321.5 39 Z " /><path fill="rgb(226,124,129)" stroke="rgb(226,124,129)" stroke-width="1" opacity="1" d="M 324.5 39 L 325 40.5 L 323 41.5 L 324.5 39 Z " /><path fill="rgb(226,124,129)" stroke="rgb(226,124,129)" stroke-width="1" opacity="1" d="M 265.5 40 L 266 41.5 L 261 45.5 L 265.5 40 Z " /><path fill="rgb(226,124,129)" stroke="rgb(226,124,129)" stroke-width="1" opacity="1" d="M 285.5 40 L 284.5 42 L 285.5 40 Z " /><path fill="rgb(226,124,129)" stroke="rgb(226,124,129)" stroke-width="1" opacity="1" d="M 161.5 41 L 164 41.5 L 162.5 43 L 160 42.5 L 161.5 41 Z " /><path fill="rgb(226,124,129)" stroke="rgb(226,124,129)" stroke-width="1" opacity="1" d="M 169.5 41 L 170 43.5 L 169 43.5 L 169.5 41 Z " /><path fill="rgb(226,124,129)" stroke="rgb(226,124,129)" stroke-width="1" opacity="1" d="M 174.5 41 L 173.5 43 L 174.5 41 Z " /><path fill="rgb(226,124,129)" stroke="rgb(226,124,129)" stroke-width="1" opacity="1" d="M 180.5 41 L 181.5 43 L 180.5 41 Z " /><path fill="rgb(226,124,129)" stroke="rgb(226,124,129)" stroke-width="1" opacity="1" d="M 231.5 41 L 232.5 43 L 231.5 42 L 227 45.5 L 231.5 41 Z " /><path fill="rgb(226,124,129)" stroke="rgb(226,124,129)" stroke-width="1" opacity="1" d="M 241.5 41 L 243 46.5 L 241 45.5 L 241.5 41 Z " /><path fill="rgb(226,124,129)" stroke="rgb(226,124,129)" stroke-width="1" opacity="1" d="M 245.5 41 L 247 44.5 L 245 43.5 L 245.5 41 Z " /><path fill="rgb(226,124,129)" stroke="rgb(226,124,129)" stroke-width="1" opacity="1" d="M 288.5 41 L 286.5 44 L 288.5 41 Z " /><path fill="rgb(226,124,129)" stroke="rgb(226,124,129)" stroke-width="1" opacity="1" d="M 330.5 41 L 331.5 43 L 330.5 41 Z " /><path fill="rgb(226,124,129)" stroke="rgb(226,124,129)" stroke-width="1" opacity="1" d="M 292.5 42 L 290.5 45 L 292.5 42 Z " /><path fill="rgb(226,124,129)" stroke="rgb(226,124,129)" stroke-width="1" opacity="1" d="M 301.5 42 L 299.5 45 L 301.5 42 Z " /><path fill="rgb(226,124,129)" stroke="rgb(226,124,129)" stroke-width="1" opacity="1" d="M 314.5 42 L 317 42.5 L 314.5 43 L 314.5 42 Z " /><path fill="rgb(226,124,129)" stroke="rgb(226,124,129)" stroke-width="1" opacity="1" d="M 325.5 42 L 327 42.5 L 325 43.5 L 327 44.5 L 323 45 L 322.5 47 L 322 44 L 325.5 42 Z " /><path fill="rgb(226,124,129)" stroke="rgb(226,124,129)" stroke-width="1" opacity="1" d="M 185.5 43 L 187 46.5 L 185 45.5 L 185.5 43 Z " /><path fill="rgb(226,124,129)" stroke="rgb(226,124,129)" stroke-width="1" opacity="1" d="M 238.5 43 L 236.5 46 L 238.5 43 Z " /><path fill="rgb(226,124,129)" stroke="rgb(226,124,129)" stroke-width="1" opacity="1" d="M 267.5 43 L 269 46.5 L 267 45.5 L 267.5 43 Z " /><path fill="rgb(226,124,129)" stroke="rgb(226,124,129)" stroke-width="1" opacity="1" d="M 155.5 44 L 157 46.5 L 155 45.5 L 155.5 44 Z " /><path fill="rgb(226,124,129)" stroke="rgb(226,124,129)" stroke-width="1" opacity="1" d="M 195.5 44 L 197 46.5 L 195 45.5 L 195.5 44 Z " /><path fill="rgb(226,124,129)" stroke="rgb(226,124,129)" stroke-width="1" opacity="1" d="M 206.5 44 Q 208.8 43.3 208 45.5 L 208.5 47 L 206.5 44 Z " /><path fill="rgb(226,124,129)" stroke="rgb(226,124,129)" stroke-width="1" opacity="1" d="M 251.5 44 L 253 46.5 L 251 45.5 L 251.5 44 Z " /><path fill="rgb(226,124,129)" stroke="rgb(226,124,129)" stroke-width="1" opacity="1" d="M 278.5 44 L 280.5 47 L 278.5 44 Z " /><path fill="rgb(226,124,129)" stroke="rgb(226,124,129)" stroke-width="1" opacity="1" d="M 294.5 44 L 296 46.5 L 294 45.5 L 294.5 44 Z " /><path fill="rgb(226,124,129)" stroke="rgb(226,124,129)" stroke-width="1" opacity="1" d="M 324.5 47 L 327 47.5 L 324.5 48 L 324.5 47 Z " /><path fill="rgb(254,235,237)" stroke="rgb(254,235,237)" stroke-width="1" opacity="1" d="M 203.5 31 Q 206.5 30.1 205 34.5 L 204.5 36 Q 210 34.5 211.5 37 L 217.5 34 Q 222 35 221 41.5 L 213.5 47 L 209.5 47 L 208 44 L 197.5 47 L 195.5 44 L 187.5 47 L 185.5 43 L 176 47 Q 177.3 44 173.5 45 Q 172.1 47.6 167.5 47 L 166 44 L 157.5 47 L 156 43.5 L 161.5 37 L 168.5 35 L 171 36 L 169 44 Q 176.1 43.6 179 37.5 Q 178.3 35.3 180.5 36 L 182.5 36 L 184 36.5 L 183 39 Q 180.3 37.9 181 40.5 L 180 43 L 188 37.5 Q 187.3 35.3 189.5 36 L 191.5 35 Q 194.8 36.8 191 38.5 L 190 44 L 198 39.5 L 196 39 Q 194.8 36 198.5 37 L 203.5 31 Z M 166 37 L 160 43 L 163 43 L 167 39 L 166 37 Z M 210 37 Q 208 39 204 38 L 200 44 L 208 43 L 211 39 Q 212 36 210 37 Z M 216 38 L 212 43 Q 211 45 215 44 L 218 40 L 216 38 Z " /><path fill="rgb(254,235,237)" stroke="rgb(254,235,237)" stroke-width="1" opacity="1" d="M 275.5 31 Q 278.1 30.2 277 33.5 L 276 36 L 282.5 36 L 283.5 37 L 289.5 34 Q 294 35 293 41.5 Q 289.9 46.9 281.5 47 L 278.5 44 L 277.5 45 L 269.5 47 Q 267.3 46.3 268 42.5 L 270 39.5 L 267 39 Q 265.7 35.7 270.5 37 L 273 32 L 275.5 31 Z M 282 37 L 281 38 L 274 38 L 272 44 L 280 43 L 283 38 L 282 37 Z M 288 38 L 284 42 Q 283 45 287 44 L 290 40 L 288 38 Z " /><path fill="rgb(254,235,237)" stroke="rgb(254,235,237)" stroke-width="1" opacity="1" d="M 261.5 34 L 266 39.5 L 260.5 46 L 253.5 47 L 251.5 44 Q 249.6 47.6 243.5 47 Q 240.9 45.6 241.5 41 L 233.5 47 L 232 43.5 L 233 41 L 224.5 47 Q 222.3 46.3 223 42.5 L 225 38.5 Q 222.3 36.8 226.5 35 Q 230.7 33.7 229 38.5 L 228 40.5 L 230.5 39 L 236.5 35 L 239 35 L 237 40.5 L 238.5 41 L 246.5 35 L 248 37.5 L 245 43.5 Q 246.2 46.3 247.5 44 L 255 38.5 L 256.5 36 L 261.5 34 Z M 260 38 L 256 44 Q 261 45 262 41 Q 263 37 260 38 Z " /><path fill="rgb(254,235,237)" stroke="rgb(254,235,237)" stroke-width="1" opacity="1" d="M 298.5 35 L 301 36.5 L 300 39.5 L 304.5 36 L 308.5 35 Q 311.5 36.5 308.5 38 L 305.5 38 L 299 44.5 Q 299.8 46.8 297.5 46 Q 296.3 48.3 295 45.5 L 296 37.5 L 298.5 35 Z " /><path fill="rgb(254,235,237)" stroke="rgb(254,235,237)" stroke-width="1" opacity="1" d="M 314.5 35 Q 320.3 34.2 322 37.5 L 319.5 41 L 313 42 Q 311.6 46 318.5 44 L 325 40.5 Q 324.5 36.5 327.5 36 L 334.5 35 L 335.5 37 L 329 38 L 332 43.5 L 331 46 L 323 47 Q 321.8 43.3 327 45 L 327 42 Q 321.6 46.3 311.5 47 L 309 46 L 308 43.5 Q 309.4 37.4 314.5 35 Z M 317 37 L 314 40 L 317 40 Q 320 39 317 37 Z " /><path fill="rgb(0,0,0)" stroke="rgb(0,0,0)" stroke-width="1" opacity="0.6745098039215687" d="M 135.5 69 L 141 69.5 L 135.5 70 L 135.5 69 Z " /><path fill="rgb(0,0,0)" stroke="rgb(0,0,0)" stroke-width="1" opacity="0.6745098039215687" d="M 151.5 69 L 164 69.5 L 151 70 L 151 90.5 L 154.5 91 L 154.5 92 Q 150 92.5 150 91.5 L 150 70.5 L 151.5 69 Z " /><path fill="rgb(0,0,0)" stroke="rgb(0,0,0)" stroke-width="1" opacity="0.6745098039215687" d="M 172.5 69 Q 177 68.5 177 69.5 L 177 87 L 188 87 L 188 92 L 172 91.5 L 187 91 L 186.5 88 L 177.5 88 L 176 86.5 L 176 70 Q 171.6 71 172.5 69 Z " /><path fill="rgb(0,0,0)" stroke="rgb(0,0,0)" stroke-width="1" opacity="0.6745098039215687" d="M 216.5 69 L 218 69.5 L 215.5 71 L 216.5 69 Z " /><path fill="rgb(0,0,0)" stroke="rgb(0,0,0)" stroke-width="1" opacity="0.6745098039215687" d="M 241.5 69 Q 246 68.5 246 69.5 L 246 87 L 257 87 L 257 92 L 241 91.5 L 256 91 L 255.5 88 L 246.5 88 L 245 86.5 L 245 70 Q 240.6 71 241.5 69 Z " /><path fill="rgb(0,0,0)" stroke="rgb(0,0,0)" stroke-width="1" opacity="0.6745098039215687" d="M 265.5 69 L 271 69.5 L 265.5 70 L 265.5 69 Z " /><path fill="rgb(0,0,0)" stroke="rgb(0,0,0)" stroke-width="1" opacity="0.6745098039215687" d="M 281.5 69 L 294 69.5 L 281.5 70 L 281.5 69 Z " /><path fill="rgb(0,0,0)" stroke="rgb(0,0,0)" stroke-width="1" opacity="0.6745098039215687" d="M 302 69 L 315 69.5 L 303 70 L 303 90.5 L 306.5 91 L 306.5 92 Q 302 92.5 302 91.5 L 302 69 Z " /><path fill="rgb(0,0,0)" stroke="rgb(0,0,0)" stroke-width="1" opacity="0.6745098039215687" d="M 324.5 69 L 340 69.5 L 324.5 70 L 324.5 69 Z " /><path fill="rgb(0,0,0)" stroke="rgb(0,0,0)" stroke-width="1" opacity="0.6745098039215687" d="M 350.5 69 Q 355 68 356 70.5 L 354.5 70 L 349.5 71 L 350.5 69 Z " /><path fill="rgb(0,0,0)" stroke="rgb(0,0,0)" stroke-width="1" opacity="0.6745098039215687" d="M 370.5 69 L 388 69.5 L 370.5 70 L 370.5 69 Z " /><path fill="rgb(0,0,0)" stroke="rgb(0,0,0)" stroke-width="1" opacity="0.6745098039215687" d="M 122.5 70 L 124.5 73 L 122.5 70 Z " /><path fill="rgb(0,0,0)" stroke="rgb(0,0,0)" stroke-width="1" opacity="0.6745098039215687" d="M 165.5 70 L 167.5 73 L 165.5 70 Z " /><path fill="rgb(0,0,0)" stroke="rgb(0,0,0)" stroke-width="1" opacity="0.6745098039215687" d="M 193.5 70 L 191.5 73 L 193.5 70 Z " /><path fill="rgb(0,0,0)" stroke="rgb(0,0,0)" stroke-width="1" opacity="0.6745098039215687" d="M 206.5 70 L 208.5 73 L 206.5 70 Z " /><path fill="rgb(0,0,0)" stroke="rgb(0,0,0)" stroke-width="1" opacity="0.6745098039215687" d="M 295.5 70 L 297.5 73 L 295.5 70 Z " /><path fill="rgb(0,0,0)" stroke="rgb(0,0,0)" stroke-width="1" opacity="0.6745098039215687" d="M 108.5 73 L 108 74.5 L 107.5 76 L 107 74.5 L 108.5 73 Z " /><path fill="rgb(0,0,0)" stroke="rgb(0,0,0)" stroke-width="1" opacity="0.6745098039215687" d="M 114.5 73 L 112.5 76 L 114.5 73 Z " /><path fill="rgb(0,0,0)" stroke="rgb(0,0,0)" stroke-width="1" opacity="0.6745098039215687" d="M 155.5 73 L 162 73.5 L 155.5 74 L 155.5 73 Z " /><path fill="rgb(0,0,0)" stroke="rgb(0,0,0)" stroke-width="1" opacity="0.6745098039215687" d="M 218.5 73 L 217.5 75 L 218.5 73 Z " /><path fill="rgb(0,0,0)" stroke="rgb(0,0,0)" stroke-width="1" opacity="0.6745098039215687" d="M 285 73 L 292 73.5 L 286 74 L 286 79 L 289.5 79 L 289.5 80 Q 285.8 80.8 285 78.5 L 285 73 Z " /><path fill="rgb(0,0,0)" stroke="rgb(0,0,0)" stroke-width="1" opacity="0.6745098039215687" d="M 307.5 73 Q 313.5 71.5 315 74.5 L 313.5 74 L 307.5 74 L 307.5 73 Z " /><path fill="rgb(0,0,0)" stroke="rgb(0,0,0)" stroke-width="1" opacity="0.6745098039215687" d="M 328 73 L 340 73.5 L 329 74 L 328.5 78 L 328 73 Z " /><path fill="rgb(0,0,0)" stroke="rgb(0,0,0)" stroke-width="1" opacity="0.6745098039215687" d="M 370.5 73 L 377 73 L 377 90.5 L 380.5 91 L 380.5 92 Q 376 92.5 376 91.5 L 376 74 L 370.5 74 L 370.5 73 Z " /><path fill="rgb(0,0,0)" stroke="rgb(0,0,0)" stroke-width="1" opacity="0.6745098039215687" d="M 381.5 73 L 388 73.5 L 381.5 74 L 381.5 73 Z " /><path fill="rgb(0,0,0)" stroke="rgb(0,0,0)" stroke-width="1" opacity="0.6745098039215687" d="M 212.5 74 L 213 76.5 L 212 76.5 L 212.5 74 Z " /><path fill="rgb(0,0,0)" stroke="rgb(0,0,0)" stroke-width="1" opacity="0.6745098039215687" d="M 137.5 75 L 138.5 77 Q 135.7 77.7 137.5 75 Z " /><path fill="rgb(0,0,0)" stroke="rgb(0,0,0)" stroke-width="1" opacity="0.6745098039215687" d="M 163.5 75 L 164 77.5 L 162 78.5 L 163.5 75 Z " /><path fill="rgb(0,0,0)" stroke="rgb(0,0,0)" stroke-width="1" opacity="0.6745098039215687" d="M 268.5 75 L 269 77 L 267 76.5 L 268.5 75 Z " /><path fill="rgb(0,0,0)" stroke="rgb(0,0,0)" stroke-width="1" opacity="0.6745098039215687" d="M 298.5 75 L 299 77.5 L 298 77.5 L 298.5 75 Z " /><path fill="rgb(0,0,0)" stroke="rgb(0,0,0)" stroke-width="1" opacity="0.6745098039215687" d="M 189.5 76 L 190 84.5 L 189 84.5 L 189.5 76 Z " /><path fill="rgb(0,0,0)" stroke="rgb(0,0,0)" stroke-width="1" opacity="0.6745098039215687" d="M 217.5 76 L 220 77.5 L 218.5 78 L 217.5 76 Z " /><path fill="rgb(0,0,0)" stroke="rgb(0,0,0)" stroke-width="1" opacity="0.6745098039215687" d="M 111.5 77 L 112 83.5 L 111 83.5 L 111.5 77 Z " /><path fill="rgb(0,0,0)" stroke="rgb(0,0,0)" stroke-width="1" opacity="0.6745098039215687" d="M 210.5 77 L 211 83.5 L 210 83.5 L 210.5 77 Z " /><path fill="rgb(0,0,0)" stroke="rgb(0,0,0)" stroke-width="1" opacity="0.6745098039215687" d="M 106.5 78 L 107 82.5 L 106 82.5 L 106.5 78 Z " /><path fill="rgb(0,0,0)" stroke="rgb(0,0,0)" stroke-width="1" opacity="0.6745098039215687" d="M 155.5 79 L 160 79.5 L 155.5 80 L 155.5 79 Z " /><path fill="rgb(0,0,0)" stroke="rgb(0,0,0)" stroke-width="1" opacity="0.6745098039215687" d="M 213.5 79 L 214.5 81 L 213.5 79 Z " /><path fill="rgb(0,0,0)" stroke="rgb(0,0,0)" stroke-width="1" opacity="0.6745098039215687" d="M 297.5 79 L 296.5 81 L 297.5 79 Z " /><path fill="rgb(0,0,0)" stroke="rgb(0,0,0)" stroke-width="1" opacity="0.6745098039215687" d="M 307.5 79 L 312 79.5 L 307.5 80 L 307.5 79 Z " /><path fill="rgb(0,0,0)" stroke="rgb(0,0,0)" stroke-width="1" opacity="0.6745098039215687" d="M 166.5 80 L 165.5 82 L 166.5 80 Z " /><path fill="rgb(0,0,0)" stroke="rgb(0,0,0)" stroke-width="1" opacity="0.6745098039215687" d="M 228.5 80 L 229.5 82 L 228.5 80 Z " /><path fill="rgb(0,0,0)" stroke="rgb(0,0,0)" stroke-width="1" opacity="0.6745098039215687" d="M 317.5 80 L 319 82.5 L 317 81.5 L 317.5 80 Z " /><path fill="rgb(0,0,0)" stroke="rgb(0,0,0)" stroke-width="1" opacity="0.6745098039215687" d="M 135.5 81 L 136 83 L 140.5 82 L 139.5 84 Q 132.9 85.9 135.5 81 Z " /><path fill="rgb(0,0,0)" stroke="rgb(0,0,0)" stroke-width="1" opacity="0.6745098039215687" d="M 219.5 82 L 222 82.5 L 219.5 83 L 219.5 82 Z " /><path fill="rgb(0,0,0)" stroke="rgb(0,0,0)" stroke-width="1" opacity="0.6745098039215687" d="M 265.5 82 L 269.5 83 L 271 82.5 Q 271.9 85.9 266.5 84 L 265.5 82 Z " /><path fill="rgb(0,0,0)" stroke="rgb(0,0,0)" stroke-width="1" opacity="0.6745098039215687" d="M 328.5 82 L 329 87 L 341 87 L 341 92 L 324 91.5 L 340 91 L 339.5 88 L 328 88 L 328.5 82 Z " /><path fill="rgb(0,0,0)" stroke="rgb(0,0,0)" stroke-width="1" opacity="0.6745098039215687" d="M 161.5 83 L 162.5 85 L 161.5 83 Z " /><path fill="rgb(0,0,0)" stroke="rgb(0,0,0)" stroke-width="1" opacity="0.6745098039215687" d="M 167.5 83 L 168 88.5 L 167 88.5 L 167.5 83 Z " /><path fill="rgb(0,0,0)" stroke="rgb(0,0,0)" stroke-width="1" opacity="0.6745098039215687" d="M 224.5 83 L 225.5 85 L 224.5 83 Z " /><path fill="rgb(0,0,0)" stroke="rgb(0,0,0)" stroke-width="1" opacity="0.6745098039215687" d="M 230.5 83 L 231 87.5 L 230 87.5 L 230.5 83 Z " /><path fill="rgb(0,0,0)" stroke="rgb(0,0,0)" stroke-width="1" opacity="0.6745098039215687" d="M 285.5 83 L 286 92 L 281 91.5 L 285 91 L 285.5 83 Z " /><path fill="rgb(0,0,0)" stroke="rgb(0,0,0)" stroke-width="1" opacity="0.6745098039215687" d="M 313.5 83 Q 316 84 315 88.5 L 314 88.5 L 313.5 83 Z " /><path fill="rgb(0,0,0)" stroke="rgb(0,0,0)" stroke-width="1" opacity="0.6745098039215687" d="M 350.5 83 L 355 83.5 L 350.5 84 L 350.5 83 Z " /><path fill="rgb(0,0,0)" stroke="rgb(0,0,0)" stroke-width="1" opacity="0.6745098039215687" d="M 212.5 85 L 213 87.5 L 212 87.5 L 212.5 85 Z " /><path fill="rgb(0,0,0)" stroke="rgb(0,0,0)" stroke-width="1" opacity="0.6745098039215687" d="M 319.5 85 L 320 89.5 L 319 89.5 L 319.5 85 Z " /><path fill="rgb(0,0,0)" stroke="rgb(0,0,0)" stroke-width="1" opacity="0.6745098039215687" d="M 120.5 86 L 119.5 88 L 120.5 86 Z " /><path fill="rgb(0,0,0)" stroke="rgb(0,0,0)" stroke-width="1" opacity="0.6745098039215687" d="M 217.5 86 L 218.5 88 L 217.5 86 Z " /><path fill="rgb(0,0,0)" stroke="rgb(0,0,0)" stroke-width="1" opacity="0.6745098039215687" d="M 390.5 87 L 391 92 L 386 91.5 L 390 91 L 390.5 87 Z " /><path fill="rgb(0,0,0)" stroke="rgb(0,0,0)" stroke-width="1" opacity="0.6745098039215687" d="M 108.5 88 L 110.5 91 L 108.5 88 Z " /><path fill="rgb(0,0,0)" stroke="rgb(0,0,0)" stroke-width="1" opacity="0.6745098039215687" d="M 124.5 88 L 122.5 91 L 124.5 88 Z " /><path fill="rgb(0,0,0)" stroke="rgb(0,0,0)" stroke-width="1" opacity="0.6745098039215687" d="M 191.5 88 L 193.5 91 L 191.5 88 Z " /><path fill="rgb(0,0,0)" stroke="rgb(0,0,0)" stroke-width="1" opacity="0.6745098039215687" d="M 208.5 88 L 206.5 91 L 208.5 88 Z " /><path fill="rgb(0,0,0)" stroke="rgb(0,0,0)" stroke-width="1" opacity="0.6745098039215687" d="M 220.5 88 L 223 88.5 L 220.5 89 L 220.5 88 Z " /><path fill="rgb(0,0,0)" stroke="rgb(0,0,0)" stroke-width="1" opacity="0.6745098039215687" d="M 293.5 89 L 294 91 L 298.5 90 L 299 92 L 293 92 L 293.5 89 Z " /><path fill="rgb(0,0,0)" stroke="rgb(0,0,0)" stroke-width="1" opacity="0.6745098039215687" d="M 342.5 89 L 343 91 L 347 91.5 L 342 92 L 342.5 89 Z " /><path fill="rgb(0,0,0)" stroke="rgb(0,0,0)" stroke-width="1" opacity="0.6745098039215687" d="M 168.5 90 L 169 92 L 163 91.5 L 168.5 90 Z " /><path fill="rgb(0,0,0)" stroke="rgb(0,0,0)" stroke-width="1" opacity="0.6745098039215687" d="M 357.5 90 L 361.5 91 L 363 90.5 Q 363.9 93.9 358.5 92 L 357.5 90 Z " /><path fill="rgb(0,0,0)" stroke="rgb(0,0,0)" stroke-width="1" opacity="0.6745098039215687" d="M 127.5 91 L 133 91.5 L 127.5 92 L 127.5 91 Z " /><path fill="rgb(0,0,0)" stroke="rgb(0,0,0)" stroke-width="1" opacity="0.6745098039215687" d="M 143.5 91 L 148 91.5 L 143.5 92 L 143.5 91 Z " /><path fill="rgb(0,0,0)" stroke="rgb(0,0,0)" stroke-width="1" opacity="0.6745098039215687" d="M 258.5 91 L 263 91.5 L 258.5 92 L 258.5 91 Z " /><path fill="rgb(0,0,0)" stroke="rgb(0,0,0)" stroke-width="1" opacity="0.6745098039215687" d="M 273.5 91 L 279 91.5 L 273.5 92 L 273.5 91 Z " /><path fill="rgb(0,0,0)" stroke="rgb(0,0,0)" stroke-width="1" opacity="0.6745098039215687" d="M 315.5 91 L 321 91.5 L 315.5 92 L 315.5 91 Z " /><path fill="rgb(0,0,0)" stroke="rgb(0,0,0)" stroke-width="1" opacity="1" d="M 115.5 69 Q 122.8 68.8 125 73.5 L 126 77 L 121 77 L 121 75.5 Q 120 72 114.5 73 Q 109.7 75.2 111 83.5 L 114.5 88 Q 119.8 89.3 121 86.5 Q 119.7 81.9 125.5 84 L 125 85.5 Q 125.5 90.5 121.5 91 L 113.5 92 L 108 87.5 Q 105.5 84 107 76.5 L 110.5 71 L 115.5 69 Z " /><path fill="rgb(0,0,0)" stroke="rgb(0,0,0)" stroke-width="1" opacity="1" d="M 196.5 69 Q 206.2 67.8 209 73.5 Q 211.7 77.3 210 85.5 L 205.5 91 L 196.5 92 L 191 87.5 Q 188.3 83.7 190 75.5 L 194.5 70 L 196.5 69 Z M 198 73 Q 192 75 194 85 L 200 89 L 203 88 L 206 84 L 205 76 Q 204 72 198 73 Z " /><path fill="rgb(0,0,0)" stroke="rgb(0,0,0)" stroke-width="1" opacity="1" d="M 218.5 69 Q 226.5 68 229 72.5 L 230 75.5 L 226.5 76 Q 225.3 71.8 218.5 73 L 217 76.5 L 218.5 78 L 225.5 79 L 230 82.5 Q 231.5 89.5 227.5 91 L 218.5 92 L 213 88.5 Q 211.4 82.8 217 85 L 218.5 88 L 222.5 89 L 226 86.5 L 224.5 83 L 217.5 82 L 213 78.5 Q 212.4 73.1 214 71 L 218.5 69 Z " /><path fill="rgb(0,0,0)" stroke="rgb(0,0,0)" stroke-width="1" opacity="1" d="M 135 70 L 141 70 L 141 72.5 L 148 90.5 L 143 91 L 141.5 87 L 133.5 87 L 133 91 L 128 91 L 135 70 Z M 138 75 L 135 84 Q 140 85 141 83 L 138 75 Z " /><path fill="rgb(0,0,0)" stroke="rgb(0,0,0)" stroke-width="1" opacity="1" d="M 151 70 L 164.5 70 L 168 73.5 Q 169.3 80.3 165 81.5 L 167 82 Q 166.1 88.2 168 91 L 163 91 L 163 84.5 L 161.5 83 L 155 83 L 155 91 L 151 91 L 151 70 Z M 155 73 L 155 80 L 163 79 L 164 76 Q 162 71 155 73 Z " /><path fill="rgb(0,0,0)" stroke="rgb(0,0,0)" stroke-width="1" opacity="1" d="M 172 70 L 176 70.5 L 176 86.5 L 177.5 88 L 187 88 L 186.5 91 L 172 91 L 172 70 Z " /><path fill="rgb(0,0,0)" stroke="rgb(0,0,0)" stroke-width="1" opacity="1" d="M 241 70 L 245 70.5 L 245 86.5 L 246.5 88 L 256 88 L 255.5 91 L 241 91 L 241 70 Z " /><path fill="rgb(0,0,0)" stroke="rgb(0,0,0)" stroke-width="1" opacity="1" d="M 265 70 L 270.5 70 L 271 71.5 L 278 91 L 273 91 L 273 88.5 Q 271.3 85.3 264.5 87 L 263 91 L 258 90.5 L 265 70 Z M 269 75 L 265 83 Q 266 85 271 84 L 269 75 Z " /><path fill="rgb(0,0,0)" stroke="rgb(0,0,0)" stroke-width="1" opacity="1" d="M 281 70 L 294.5 70 L 298 73.5 Q 299 79.5 296 81.5 Q 299 84.8 298 91 L 294 91 L 294 89.5 L 293 83 L 285 83 L 285 91 L 281 91 L 281 70 Z M 285 73 Q 283 78 287 80 L 293 79 L 294 76 Q 292 71 285 73 Z " /><path fill="rgb(0,0,0)" stroke="rgb(0,0,0)" stroke-width="1" opacity="1" d="M 303 70 L 316.5 70 L 319 72.5 L 320 77.5 L 319 80 Q 316.3 78.9 317 81.5 L 319 83.5 Q 317.5 89 320 90.5 L 315 91 Q 316.8 84.9 313.5 83 L 307 83 L 307 91 L 303 91 L 303 70 Z M 307 73 L 307 80 L 315 79 L 316 77 L 315 75 L 314 73 L 307 73 Z " /><path fill="rgb(0,0,0)" stroke="rgb(0,0,0)" stroke-width="1" opacity="1" d="M 324 70 L 339.5 70 L 340 73 L 328 73 L 328 78 L 339 78 L 339 82 L 328 82 L 328 88 L 339.5 88 L 340 91 L 324 91 L 324 70 Z " /><path fill="rgb(0,0,0)" stroke="rgb(0,0,0)" stroke-width="1" opacity="1" d="M 350.5 70 Q 355 69 356 71.5 L 362 91 Q 358.2 92 357 89.5 L 356.5 87 L 348 87 L 347 91 Q 341.8 93.1 343 88.5 L 350.5 70 Z M 353 75 L 350 81 L 350 84 L 355 84 L 353 75 Z " /><path fill="rgb(0,0,0)" stroke="rgb(0,0,0)" stroke-width="1" opacity="1" d="M 370 70 L 387.5 70 L 388 73 L 381 73 L 381 90.5 L 377 91 L 377 73 L 370 73 L 370 70 Z " /><path fill="rgb(0,0,0)" stroke="rgb(0,0,0)" stroke-width="1" opacity="1" d="M 386 87 Q 392 85 390 91 Q 384 93 386 87 Z " /><path fill="rgb(220,31,40)" stroke="rgb(220,31,40)" stroke-width="1" opacity="0.9411764705882353" d="M 40.5 0 Q 56.3 -1.8 61 7.5 L 65 13.5 L 90 72.5 L 72 73 L 55 27.5 L 49.5 20 L 46.5 19 L 41 22.5 L 17.5 71 L 0.5 71 L 0 69.5 L 28 10.5 L 34.5 3 L 40.5 0 Z " /><path fill="rgb(220,31,40)" stroke="rgb(220,31,40)" stroke-width="1" opacity="0.9411764705882353" d="M 69.5 6 L 73 7.5 L 80 20.5 L 80 30.5 L 76 32 L 67 14.5 L 67 9.5 L 69.5 6 Z " /><path fill="rgb(220,31,40)" stroke="rgb(220,31,40)" stroke-width="1" opacity="0.9411764705882353" d="M 45.5 23 Q 49.5 22.5 50 25.5 L 67 66.5 L 68 72 L 55.5 72 L 55 70.5 L 49 55 L 45 57.5 L 28 92.5 L 29 95 L 31.5 96 L 73 96 L 73 109.5 L 72.5 110 L 13.5 110 L 9 108 L 8 100.5 L 41 29.5 L 45.5 23 Z " /><path fill="rgb(220,31,40)" stroke="rgb(220,31,40)" stroke-width="1" opacity="0.9411764705882353" d="M 223.5 25 L 273.5 25 L 274.5 26 L 293.5 26 L 294.5 27 L 316.5 28 L 345.5 33 L 357 38.5 L 358 41.5 L 355.5 45 L 341.5 50 L 325.5 53 L 318.5 53 L 317.5 54 L 308.5 54 L 307.5 55 L 276.5 56 L 275.5 57 L 221.5 57 L 220.5 56 L 202.5 56 L 201.5 55 L 189.5 55 L 188.5 54 L 171.5 53 L 151.5 49 L 140 43.5 L 139 40.5 L 141.5 37 L 151.5 33 L 172.5 29 L 189.5 28 L 190.5 27 L 202.5 27 L 203.5 26 L 222.5 26 L 223.5 25 Z M 203 31 L 200 35 Q 201 38 197 36 L 195 39 L 197 40 L 193 43 L 190 43 L 193 38 L 192 34 L 182 42 L 180 43 L 184 38 Q 185 33 181 35 L 178 39 L 170 44 Q 169 39 172 37 L 168 34 L 161 37 L 155 45 L 157 47 Q 163 48 165 44 L 166 47 L 174 46 Q 175 44 177 47 Q 183 48 185 44 L 187 47 L 194 46 Q 195 44 197 47 Q 203 48 206 45 L 209 47 L 215 47 L 222 42 Q 223 37 221 36 Q 218 37 219 34 L 212 36 L 205 36 L 206 34 Q 207 29 203 31 Z M 275 31 L 272 35 L 267 38 Q 266 40 269 39 L 267 44 L 269 47 Q 275 48 278 45 L 281 47 Q 288 48 291 45 L 294 41 L 293 38 Q 294 35 291 36 L 291 34 L 284 36 L 277 36 L 278 34 Q 279 29 275 31 Z M 227 34 L 224 37 Q 225 42 222 45 L 223 47 L 228 46 L 233 42 L 232 47 Q 238 47 241 42 L 243 47 L 250 46 Q 251 44 253 47 Q 263 48 266 42 Q 267 35 263 34 L 259 35 Q 255 34 256 37 Q 253 43 246 44 Q 245 39 249 38 L 248 35 L 241 38 L 238 40 L 239 38 Q 242 36 238 34 L 233 37 L 229 40 L 230 37 L 227 34 Z M 308 34 L 302 38 L 302 37 Q 301 34 298 35 L 296 37 L 294 46 L 298 47 L 302 42 L 307 38 Q 312 40 310 35 L 308 34 Z M 317 34 L 314 35 L 308 42 Q 307 46 311 47 Q 318 48 322 45 L 322 47 L 325 48 Q 330 48 332 45 L 330 41 Q 329 36 335 38 L 336 35 L 334 34 L 327 36 L 324 41 L 318 44 Q 312 46 313 43 L 315 43 L 320 42 Q 323 41 322 36 L 317 34 Z " /><path fill="rgb(220,31,40)" stroke="rgb(220,31,40)" stroke-width="1" opacity="0.9411764705882353" d="M 165.5 38 L 165 39.5 Q 165.8 41.8 163.5 41 L 161 42.5 L 163.5 39 L 165.5 38 Z " /><path fill="rgb(220,31,40)" stroke="rgb(220,31,40)" stroke-width="1" opacity="0.9411764705882353" d="M 206.5 38 L 210 38.5 L 208 42 L 201 44 L 202 39 L 206.5 38 Z " /><path fill="rgb(220,31,40)" stroke="rgb(220,31,40)" stroke-width="1" opacity="0.9411764705882353" d="M 216.5 38 L 217 40.5 L 216 43 L 212.5 44 L 213 42.5 L 216.5 38 Z " /><path fill="rgb(220,31,40)" stroke="rgb(220,31,40)" stroke-width="1" opacity="0.9411764705882353" d="M 260.5 38 L 261 40.5 L 260 43 L 257.5 44 L 257 41.5 L 260.5 38 Z " /><path fill="rgb(220,31,40)" stroke="rgb(220,31,40)" stroke-width="1" opacity="0.9411764705882353" d="M 277.5 38 L 282 38.5 L 280 42 L 273 44 L 274 39 L 277.5 38 Z " /><path fill="rgb(220,31,40)" stroke="rgb(220,31,40)" stroke-width="1" opacity="0.9411764705882353" d="M 288.5 38 L 289 40.5 L 284 44 L 286 39 L 288.5 38 Z " /><path fill="rgb(220,31,40)" stroke="rgb(220,31,40)" stroke-width="1" opacity="0.9411764705882353" d="M 45 61 Q 47.7 59.9 47 62.5 L 54.5 78 L 91.5 78 L 93 79.5 L 98 93 L 36.5 93 L 33 90.5 L 33 86.5 L 35 84.5 L 45 61 Z " /><path fill="rgb(220,31,40)" stroke="rgb(220,31,40)" stroke-width="1" opacity="0.9411764705882353" d="M 395.5 81 L 512.5 81 L 514 82.5 L 518 91.5 L 400.5 92 L 395.5 81 Z " /><path fill="rgb(220,31,40)" stroke="rgb(220,31,40)" stroke-width="1" opacity="0.9411764705882353" d="M 515.5 81 L 522.5 81 L 523 82.5 L 527 92 L 520.5 92 L 519 90.5 L 515.5 81 Z " /><path fill="rgb(220,31,40)" stroke="rgb(220,31,40)" stroke-width="1" opacity="0.9411764705882353" d="M 525 81 L 533 81 L 533 83.5 L 537 91.5 L 529 92 L 525 81 Z " /><path fill="rgb(220,31,40)" stroke="rgb(220,31,40)" stroke-width="1" opacity="0.9411764705882353" d="M 535 81 Q 541.1 79.3 543 82.5 L 546 92 L 539.5 92 L 539 90.5 L 535 81 Z " /></svg>